<?xml version="1.0" encoding="UTF-8"?>
<svg width="60px" height="37px" viewBox="0 0 60 37" version="1.1" xmlns="http://www.w3.org/2000/svg" xmlns:xlink="http://www.w3.org/1999/xlink" style="background: #2F0F0F;">
    <!-- Generator: sketchtool 41.2 (35397) - http://www.bohemiancoding.com/sketch -->
    <title>3732E43F-4F70-465B-8600-1729771E2070</title>
    <desc>Created with sketchtool.</desc>
    <defs></defs>
    <g id="Symbols" stroke="none" stroke-width="1" fill="none" fill-rule="evenodd">
        <g id="logo/white" fill="#FFFFFF">
            <g id="Combined-Shape">
                <path d="M7.5,15.2414773 L7.5,0 L0,0 L0,35.8064516 L7.5,35.8064516 L7.5,25.4904364 L11.25,21.6927824 L22.5,35.8064516 L26.25,35.8064516 L32.1428571,35.8064516 L29.4642857,32.3326914 L27.8571429,30.3812317 L16.6071429,16.8100845 L26.7857143,5.95964459 L26.7857143,0 L23.0357143,0 L7.5,15.2414773 Z M27.476583,26.8130854 L38.0357143,0 L46.0714286,0 L57.8571429,29.9277805 L60,35.8064516 L51.9642857,35.8064516 L49.2857143,28.3245065 L34.8214286,28.3245065 L33.0307677,33.3262871 L27.476583,26.8130854 Z M36.9642857,21.9114107 L42.0535714,9.08521907 L47.1428571,21.9114107 L36.9642857,21.9114107 Z"></path>
            </g>
        </g>
    </g>
</svg>