<?xml version="1.0" encoding="UTF-8" standalone="no"?>
<svg width="22px" height="22px" viewBox="0 0 22 22" version="1.1" xmlns="http://www.w3.org/2000/svg" xmlns:xlink="http://www.w3.org/1999/xlink">
    <!-- Generator: Sketch 42 (36781) - http://www.bohemiancoding.com/sketch -->
    <title>Combined-Shape</title>
    <desc>Created with Sketch.</desc>
    <defs></defs>
    <g id="Page-1" stroke="none" stroke-width="1" fill="none" fill-rule="evenodd">
        <g id="arrow-white-copy-2" transform="translate(-7.000000, -7.000000)" fill-rule="nonzero" fill="#FFFFFF">
            <g id="Symbols">
                <g id="button-/-close-blue">
                    <path d="M17.7822648,14.9378178 L25.0210372,7.75033901 C25.9252972,6.85008885 27.2868003,6.74508469 28.0620822,7.51580235 C28.8374798,8.28640476 28.7330189,9.64086389 27.8287589,10.5411141 L22.8814369,15.4690777 L22.8911209,15.4787617 L20.6084508,17.7506303 L22.8911209,20.0224988 L22.8814369,20.0321828 L27.8287589,24.9601465 C28.7330189,25.8603966 28.8374798,27.2148558 28.0620822,27.9854582 C27.2868003,28.7561758 25.9252972,28.6511717 25.0210372,27.7509215 L17.7822648,20.5634427 L10.5606132,27.7509215 C9.65635322,28.6511717 8.29485016,28.7561758 7.51956825,27.9854582 C6.74417058,27.2148558 6.84863149,25.8603966 7.7528915,24.9601465 L14.9945113,17.7506303 L7.7528915,10.5411141 C6.84863149,9.64086389 6.74417058,8.28640476 7.51956825,7.51580235 C8.29485016,6.74508469 9.65635322,6.85008885 10.5606132,7.75033901 L17.7822648,14.9378178 Z" id="Combined-Shape"></path>
                </g>
            </g>
        </g>
    </g>
</svg>