<svg width="36" height="36" viewBox="0 0 36 36" xmlns="http://www.w3.org/2000/svg"><title>BB04E488-382C-4370-91BF-8D1A450A914D</title><g transform="rotate(-180 18 18)" fill="none" fill-rule="evenodd"><path fill="#FFF" opacity=".4" d="M0 0h36v36H0z"/><path d="M18.13 25.556l9-8.928c.905-.9 1.726-.771 2.5 0 .776.77.905 2.1 0 3l-10 10c-.246.245-.762.568-1.5.575-.777.006-1.239-.316-1.5-.575l-10-10c-.903-.9-.775-2.23 0-3 .776-.771 2.097-.9 3 0l8.5 8.928z" fill="#0000F2"/><rect fill="#0000F2" x="6" y="8" width="24" height="4" rx="2"/></g></svg>